<svg width="385" height="385" viewBox="0 0 385 385" fill="none" xmlns="http://www.w3.org/2000/svg">
<g clip-path="url(#clip0)" filter="url(#filter0_d)">
<rect width="376.155" height="376.154" transform="translate(4)" fill="black"/>
<path d="M198.524 150.313C175.287 115.474 189.229 15.553 168.321 9.52797C149.737 3.94697 92.105 42.055 63.764 92.705C35.413 143.36 0.568001 219.086 71.203 266.962C109.761 296.691 60.057 310.635 51.218 286.941C50.395 335.132 97.734 336.371 104.658 302.273C109.474 278.533 80.621 228.73 71.67 204.688C49.822 146.145 114.414 67.605 114.414 67.605C114.414 67.605 56.794 162.406 80.025 208.414C159.494 325.512 106.596 322.722 86.062 336.675C163.668 340.389 190.344 271.949 194.805 262.782C205.016 235.364 198.745 186.572 173.424 163.352C167.387 158.004 161.811 164.508 140.78 163.352C119.75 162.178 131.14 142.438 131.14 142.438C131.14 142.438 123.883 136.278 123.702 133.61C123.527 130.947 130.195 128.963 130.195 128.963C130.195 128.963 123.691 125.471 123.229 122.459C122.774 119.417 130.212 112.218 130.212 112.218C130.212 112.218 120.392 107.687 120.211 103.156C120.036 98.626 130.925 91.152 141.353 69.473C149.247 53.09 148.791 25.795 161.332 19.513C168.77 32.3 138.112 129.879 188.289 161.016C197.578 166.124 257.061 212.594 208.263 272.532C262.176 234.896 213.132 171.77 198.524 150.313Z" fill="white"/>
<path d="M238.016 3.01306C261.253 30.4431 237.548 134.065 292.384 168.443C366.721 221.422 314.325 292.839 303.536 312.036C322.126 258.135 320.736 230.25 311.896 208.414C303.057 186.583 247.31 128.496 238.482 99.2091C229.655 69.9291 226.864 -10.9059 184.09 3.81306C223.617 53.6801 199.679 99.4021 253.58 167.976C307.481 236.544 296.552 332.938 251.502 355.229C321.891 262.07 259.862 189.345 241.739 160.525C232.152 145.281 212.01 132.652 210.141 97.3461C208.284 62.0231 183.739 0.910057 173.901 4.41406C199.457 55.0631 172.967 126.159 230.121 194.47C269.145 237.22 286.357 330.158 220.382 376.154C289.615 373.363 329.574 299.494 346.297 251.618C368.6 185.169 304.936 128.028 292.861 104.785C280.778 81.5351 274.261 3.49106 238.016 3.01306Z" fill="white"/>
<path d="M327.229 78.056C304.925 42.511 273.994 21.667 262.433 12.892C294.124 67.605 292.023 91.998 303.525 108.738C315.027 125.46 335.24 129.307 354.414 189.106C355.102 180.604 349.533 113.618 327.229 78.056Z" fill="white"/>
<path d="M232.96 42.522C234.524 51.216 242.185 96.184 248.116 104.557C244.298 49.494 249.529 52.623 244.987 32.06C240.445 11.49 232.434 0.344 205.951 0C232.434 22.303 231.395 33.829 232.96 42.522Z" fill="white"/>
</g>
<defs>
<filter id="filter0_d" x="0" y="0" width="384.155" height="384.154" filterUnits="userSpaceOnUse" color-interpolation-filters="sRGB">
<feFlood flood-opacity="0" result="BackgroundImageFix"/>
<feColorMatrix in="SourceAlpha" type="matrix" values="0 0 0 0 0 0 0 0 0 0 0 0 0 0 0 0 0 0 127 0"/>
<feOffset dy="4"/>
<feGaussianBlur stdDeviation="2"/>
<feColorMatrix type="matrix" values="0 0 0 0 0 0 0 0 0 0 0 0 0 0 0 0 0 0 0.25 0"/>
<feBlend mode="normal" in2="BackgroundImageFix" result="effect1_dropShadow"/>
<feBlend mode="normal" in="SourceGraphic" in2="effect1_dropShadow" result="shape"/>
</filter>
<clipPath id="clip0">
<rect width="376.155" height="376.154" fill="white" transform="translate(4)"/>
</clipPath>
</defs>
</svg>
